<?xml version="1.0" ?><svg viewBox="0 0 22.52 22.521" xmlns="http://www.w3.org/2000/svg"><g data-name="Layer 2" id="Layer_2"><g data-name="Layer 1" id="Layer_1-2"><path d="M4.806,9.1H9.1a.342.342,0,1,1,0,.683H4.806a.342.342,0,0,1,0-.683Zm-1.82,0c-.278,0-.8-.08-.8.341s.518.338.8.342A.342.342,0,0,0,2.986,9.1Zm6.352,3.185H4.806a.342.342,0,0,0,0,.683H9.338A.342.342,0,0,0,9.338,12.284Zm-6.352,0c-.278,0-.8-.08-.8.342s.518.338.8.341A.342.342,0,0,0,2.986,12.284Zm8.388,3.185H8.091a.341.341,0,0,0,0,.682h3.283A.341.341,0,0,0,11.374,15.469Zm-6.568.682H6.27a.341.341,0,0,0,0-.682H4.806A.341.341,0,0,0,4.806,16.151Zm-1.82-.682H2.531a.341.341,0,0,0,0,.682h.455A.341.341,0,0,0,2.986,15.469ZM10.934,19a.342.342,0,0,0,.341.342h3.74a.342.342,0,0,0,0-.683h-3.74A.341.341,0,0,0,10.934,19Zm7.037-.528v2.347a1.709,1.709,0,0,1-1.706,1.707H1.706A1.709,1.709,0,0,1,0,20.814V1.706A1.709,1.709,0,0,1,1.706,0H16.265a1.709,1.709,0,0,1,1.706,1.706V6.124a.341.341,0,1,1-.682,0V1.706A1.025,1.025,0,0,0,16.265.683H13.421V1.706a1.708,1.708,0,0,1-1.706,1.706H6.256A1.708,1.708,0,0,1,4.55,1.706V.683H1.706A1.025,1.025,0,0,0,.682,1.706V20.814a1.025,1.025,0,0,0,1.024,1.024H16.265a1.025,1.025,0,0,0,1.024-1.024V18.467a.341.341,0,0,1,.682,0ZM5.232,1.706A1.026,1.026,0,0,0,6.256,2.73h5.459a1.026,1.026,0,0,0,1.024-1.024V.683H5.232Zm6.484,4.549a.342.342,0,0,0-.342-.341H8.545a.341.341,0,0,0,0,.682h2.829A.341.341,0,0,0,11.716,6.255Zm-4.748,0a.342.342,0,0,0-.342-.341h-4.1a.341.341,0,1,0,0,.682h4.1A.341.341,0,0,0,6.968,6.255ZM19,6.824a3.492,3.492,0,0,0-2.736,1.354,3.517,3.517,0,0,0-6.256,2.281c0,4.023,5.825,7.757,6.073,7.914a.343.343,0,0,0,.365,0,19.869,19.869,0,0,0,4.423-3.945.341.341,0,0,0-.536-.421,19.344,19.344,0,0,1-4.069,3.668c-.981-.662-5.573-3.941-5.573-7.216a2.827,2.827,0,0,1,5.277-1.5.354.354,0,0,0,.592,0c2.35-3.477,6.749-.15,4.8,3.4H19.786L18.508,9.309a.341.341,0,0,0-.628,0l-2.05,4.78-.8-1.613a.342.342,0,0,0-.306-.19H12.883a.342.342,0,0,0,0,.683h1.632l1.032,2.085a.343.343,0,0,0,.619-.016l2.024-4.72,1.055,2.516a.342.342,0,0,0,.314.209l2.028,0a.341.341,0,0,0,.3-.184,5.342,5.342,0,0,0,.629-2.394A3.582,3.582,0,0,0,19,6.824ZM4.806,19.337H9.455a.342.342,0,1,0,0-.683H4.806A.342.342,0,0,0,4.806,19.337Zm-1.82-.683H2.531a.342.342,0,0,0,0,.683h.455A.342.342,0,0,0,2.986,18.654Z" data-name="health care program" id="health_care_program"/></g></g></svg>